<svg width="16" height="16" viewBox="0 0 16 16" fill="none" xmlns="http://www.w3.org/2000/svg">
<rect width="16" height="16" fill="#CA1517"/>
<path d="M4 3C3.446 3 3 3.446 3 4V12C3 12.554 3.446 13 4 13V13.666C4 13.851 4.15 14 4.334 14H4.666C4.851 14 5 13.85 5 13.666V13H11V13.666C11 13.851 11.15 14 11.334 14H11.666C11.851 14 12 13.85 12 13.666V13C12.554 13 13 12.554 13 12V4C13 3.446 12.554 3 12 3H4ZM4.75 4H11.25C11.665 4 12 4.335 12 4.75V8.5C12 9.331 11.331 10 10.5 10H5.5C4.669 10 4 9.331 4 8.5V4.75C4 4.335 4.335 4 4.75 4ZM4.475 11H5.5C5.63261 11 5.75979 11.0527 5.85355 11.1464C5.94732 11.2402 6 11.3674 6 11.5C6 11.6326 5.94732 11.7598 5.85355 11.8536C5.75979 11.9473 5.63261 12 5.5 12H4.5C4.36739 12.0033 4.2389 11.9538 4.14279 11.8624C4.04667 11.771 3.99082 11.6451 3.9875 11.5125C3.98418 11.3799 4.03368 11.2514 4.12511 11.1553C4.21653 11.0592 4.34239 11.0033 4.475 11ZM10.475 11H11.5C11.6326 11 11.7598 11.0527 11.8536 11.1464C11.9473 11.2402 12 11.3674 12 11.5C12 11.6326 11.9473 11.7598 11.8536 11.8536C11.7598 11.9473 11.6326 12 11.5 12H10.5C10.4343 12.0016 10.369 11.9903 10.3077 11.9667C10.2464 11.9431 10.1904 11.9077 10.1428 11.8624C10.0952 11.8171 10.057 11.7629 10.0303 11.7029C10.0037 11.6429 9.98914 11.5782 9.9875 11.5125C9.98586 11.4468 9.99717 11.3815 10.0208 11.3202C10.0444 11.2589 10.0798 11.2029 10.1251 11.1553C10.1704 11.1077 10.2246 11.0695 10.2846 11.0428C10.3446 11.0162 10.4093 11.0016 10.475 11Z" fill="white"/>
</svg>
