<svg width="16" height="16" viewBox="0 0 16 16" fill="none" xmlns="http://www.w3.org/2000/svg">
<rect width="16" height="16" fill="#018739"/>
<path d="M6.00002 3.99992C6.7364 3.99992 7.33335 3.40297 7.33335 2.66659C7.33335 1.93021 6.7364 1.33325 6.00002 1.33325C5.26364 1.33325 4.66669 1.93021 4.66669 2.66659C4.66669 3.40297 5.26364 3.99992 6.00002 3.99992Z" fill="white"/>
<path d="M11.32 9.86941C11.2898 9.71834 11.2082 9.58239 11.0891 9.48467C10.97 9.38696 10.8207 9.33351 10.6667 9.33341H7.91134L7.62534 7.33341H10.6667V6.00008H7.43534L7.32668 5.23875C7.3039 5.07995 7.22462 4.93469 7.10339 4.82962C6.98215 4.72455 6.8271 4.66673 6.66668 4.66675H6.00001C5.90456 4.66706 5.81028 4.68781 5.72351 4.7276C5.63675 4.76739 5.5595 4.82529 5.49698 4.89741C5.43445 4.96954 5.38809 5.05421 5.36102 5.14575C5.33394 5.23728 5.32678 5.33355 5.34001 5.42808L5.92468 9.52275C5.97155 9.83977 6.13048 10.1295 6.37266 10.3394C6.61483 10.5493 6.92421 10.6654 7.24468 10.6667H10.12L10.6793 13.4641C10.742 13.7754 11.0153 14.0001 11.3333 14.0001H13.3333V12.6667H11.8793L11.32 9.86941Z" fill="white"/>
<path d="M8.33998 11.6667C7.84731 12.6507 6.83998 13.3333 5.66665 13.3333C4.87127 13.3324 4.10872 13.0161 3.5463 12.4537C2.98388 11.8913 2.66753 11.1287 2.66665 10.3333C2.6675 9.73591 2.8467 9.15237 3.18128 8.65744C3.51586 8.16251 3.99059 7.77875 4.54465 7.55532L4.35198 6.20532C2.60331 6.76332 1.33331 8.40266 1.33331 10.3333C1.33331 12.7227 3.27731 14.6667 5.66665 14.6667C6.40981 14.6654 7.14017 14.4731 7.78754 14.1081C8.43492 13.7432 8.97755 13.2179 9.36331 12.5827L9.18065 11.6667H8.33998Z" fill="white"/>
</svg>
