<svg width="16" height="16" viewBox="0 0 16 16" fill="none" xmlns="http://www.w3.org/2000/svg">
<rect width="16" height="16" fill="#CA1517"/>
<path d="M6.647 1.14702L4.792 3.00002H4C3.446 3.00002 3 3.44602 3 4.00002V12C3 12.554 3.446 13 4 13V13.5C4 13.6326 4.05268 13.7598 4.14645 13.8536C4.24021 13.9473 4.36739 14 4.5 14C4.63261 14 4.75979 13.9473 4.85355 13.8536C4.94732 13.7598 5 13.6326 5 13.5V13H11V13.5C11 13.6326 11.0527 13.7598 11.1464 13.8536C11.2402 13.9473 11.3674 14 11.5 14C11.6326 14 11.7598 13.9473 11.8536 13.8536C11.9473 13.7598 12 13.6326 12 13.5V13C12.554 13 13 12.554 13 12V4.00002C13 3.44602 12.554 3.00002 12 3.00002H10.207L11.353 1.85402C11.4441 1.75972 11.4945 1.63342 11.4933 1.50232C11.4922 1.37122 11.4396 1.24582 11.3469 1.15311C11.2542 1.06041 11.1288 1.00782 10.9977 1.00669C10.8666 1.00555 10.7403 1.05594 10.646 1.14702L8.794 3.00002H6.207L7.354 1.85402C7.44775 1.76014 7.50037 1.63285 7.50028 1.50017C7.50018 1.36749 7.44739 1.24028 7.3535 1.14652C7.25961 1.05277 7.13233 1.00015 6.99965 1.00024C6.86696 1.00034 6.74075 1.05314 6.647 1.14702ZM5 4.00002H11C11.554 4.00002 12 4.44602 12 5.00002V8.50002C12 9.33102 11.331 10 10.5 10H5.5C4.669 10 4 9.33102 4 8.50002V5.00002C4 4.44602 4.446 4.00002 5 4.00002ZM4.5 11H5.5C5.63261 11 5.75979 11.0527 5.85355 11.1465C5.94732 11.2402 6 11.3674 6 11.5C6 11.6326 5.94732 11.7598 5.85355 11.8536C5.75979 11.9473 5.63261 12 5.5 12H4.5C4.36739 12 4.24021 11.9473 4.14645 11.8536C4.05268 11.7598 4 11.6326 4 11.5C4 11.3674 4.05268 11.2402 4.14645 11.1465C4.24021 11.0527 4.36739 11 4.5 11ZM10.5 11H11.5C11.6326 11 11.7598 11.0527 11.8536 11.1465C11.9473 11.2402 12 11.3674 12 11.5C12 11.6326 11.9473 11.7598 11.8536 11.8536C11.7598 11.9473 11.6326 12 11.5 12H10.5C10.3674 12 10.2402 11.9473 10.1464 11.8536C10.0527 11.7598 10 11.6326 10 11.5C10 11.3674 10.0527 11.2402 10.1464 11.1465C10.2402 11.0527 10.3674 11 10.5 11Z" fill="white"/>
</svg>
