<svg width="16" height="16" viewBox="0 0 16 16" fill="none" xmlns="http://www.w3.org/2000/svg">
<path d="M7.99998 1.33325C11.682 1.33325 14.6666 4.31792 14.6666 7.99992C14.6666 11.6819 11.682 14.6666 7.99998 14.6666C4.31798 14.6666 1.33331 11.6819 1.33331 7.99992C1.33331 4.31792 4.31798 1.33325 7.99998 1.33325ZM7.99998 2.66659C6.58549 2.66659 5.22894 3.22849 4.22874 4.22868C3.22855 5.22888 2.66665 6.58543 2.66665 7.99992C2.66665 9.41441 3.22855 10.771 4.22874 11.7712C5.22894 12.7713 6.58549 13.3333 7.99998 13.3333C9.41447 13.3333 10.771 12.7713 11.7712 11.7712C12.7714 10.771 13.3333 9.41441 13.3333 7.99992C13.3333 6.58543 12.7714 5.22888 11.7712 4.22868C10.771 3.22849 9.41447 2.66659 7.99998 2.66659ZM7.99998 9.99992C8.17679 9.99992 8.34636 10.0702 8.47138 10.1952C8.59641 10.3202 8.66665 10.4898 8.66665 10.6666C8.66665 10.8434 8.59641 11.013 8.47138 11.138C8.34636 11.263 8.17679 11.3333 7.99998 11.3333C7.82317 11.3333 7.6536 11.263 7.52857 11.138C7.40355 11.013 7.33331 10.8434 7.33331 10.6666C7.33331 10.4898 7.40355 10.3202 7.52857 10.1952C7.6536 10.0702 7.82317 9.99992 7.99998 9.99992ZM7.99998 3.99992C8.17679 3.99992 8.34636 4.07016 8.47138 4.19518C8.59641 4.3202 8.66665 4.48977 8.66665 4.66659V8.66658C8.66665 8.8434 8.59641 9.01296 8.47138 9.13799C8.34636 9.26301 8.17679 9.33325 7.99998 9.33325C7.82317 9.33325 7.6536 9.26301 7.52857 9.13799C7.40355 9.01296 7.33331 8.8434 7.33331 8.66658V4.66659C7.33331 4.48977 7.40355 4.3202 7.52857 4.19518C7.6536 4.07016 7.82317 3.99992 7.99998 3.99992Z" fill="#CA1517"/>
</svg>
